<svg xmlns="http://www.w3.org/2000/svg" xmlns:xlink="http://www.w3.org/1999/xlink" width="12.833" height="12.163" viewBox="0 0 12.833 12.163">
  <defs>
    <clipPath id="clip-path">
      <path id="_Icon_小olor" data-name=" Icon 小olor" d="M9.985,12.163a.643.643,0,0,1-.3-.073L6.416,10.381,3.145,12.09a.642.642,0,0,1-.929-.678L2.839,7.8.2,5.244a.641.641,0,0,1,.354-1.1l3.657-.531L5.842.327a.668.668,0,0,1,1.149,0L8.626,3.616l3.657.531a.641.641,0,0,1,.354,1.1L9.994,7.8l.623,3.611a.641.641,0,0,1-.632.751" transform="translate(0 0)" fill="#bf2c7d"/>
    </clipPath>
  </defs>
  <g id="Group" transform="translate(0)">
    <g id="_01_Icons_Filled_alert-circle-fill" data-name="01) Icons/Filled/alert-circle-fill">
      <g id="Group_253" data-name="Group 253" transform="translate(0)">
        <path id="_Icon_小olor-2" data-name=" Icon 小olor" d="M9.985,12.163a.643.643,0,0,1-.3-.073L6.416,10.381,3.145,12.09a.642.642,0,0,1-.929-.678L2.839,7.8.2,5.244a.641.641,0,0,1,.354-1.1l3.657-.531L5.842.327a.668.668,0,0,1,1.149,0L8.626,3.616l3.657.531a.641.641,0,0,1,.354,1.1L9.994,7.8l.623,3.611a.641.641,0,0,1-.632.751" transform="translate(0 0)" fill="#bf2c7d"/>
      </g>
    </g>
  </g>
</svg>
